/* XPM */
static char *background_resized[] = {
/* columns rows colors chars-per-pixel */
"64 64 34 1 ",
"  c #208A20",
". c #208B20",
"X c #218A21",
"o c #228A22",
"O c #228B22",
"+ c #228C22",
"@ c #248B24",
"# c #248C24",
"$ c #229022",
"% c #229122",
"& c #239023",
"* c #239123",
"= c #249124",
"- c #259625",
"; c #259725",
": c #349434",
"> c #359535",
", c #359A35",
"< c #369A36",
"1 c #2FC12F",
"2 c #2FC22F",
"3 c #31C231",
"4 c #30C730",
"5 c #31C731",
"6 c #31C831",
"7 c #32CC32",
"8 c #32CD32",
"9 c #32CE32",
"0 c #4A9F48",
"q c #4AA048",
"w c #FDE262",
"e c #D8EBD9",
"r c #D9ECD9",
"t c #EEF3DE",
/* pixels */
"8888888888888888888888888888888888888888888888888888888888888888",
"8888888888888888888888888888888888888888888888888888888888888888",
"8888888888888888888888888888888888888888888888888888888888888888",
"8888888888888888888888888888888888888888888888888888888888888888",
"8888888888888888888888888888888888888888888888888888888888888888",
"8888888888888888888888888888888888888888888888888888888888888888",
"8888888888888888888888888888888888888888888888888888888888888888",
"8888888888888888888888888888888888888888888888888888888888888888",
"8888888888888888888888888888888888888888888888888888888888888888",
"8888888888888888888888855588888888888888888888888888888888888888",
"8888888888888888888888****88888888888888888888888888888888888888",
"8888888888888888888551*oo*18888885588888888888888888888888888888",
"888888888888888885****oooo**5888****5888888888888888888888888888",
"888888888888888885*o::ooooo*5881*oo*1555888888888888888888888888",
"888888888888888885*:ee:oooo*58**oooo****888888888888888888888888",
"888888888855555555,0ttq:ooo*11*oooooooo*188888888888888888888888",
"8888888888*******,etwwte:ooo**oooooooooo**8888888888888888888888",
"8888888551*oooooo:etwwte:ooooooo::ooooooo*5888888888888888888888",
"888888****oooooooo:0ttq:ooooooo:ee:oooooo*5888888888888888888888",
"888885*ooooo::ooooo:ee:ooooooo:qttq:ooooo*5888888888888888888888",
"888885*oooo:ee:ooooo::ooooooo:etwwte:oooo*5888888888888888888888",
"888885**oo:qttq:ooooooooooooo:etwwte:oooo*5888888888888888888888",
"88888881*:etwwte:ooooooooooooo:qttq:ooooo*5888888888888888888888",
"88888885*:etwwte:oooooooooooooo:ee:ooooo**8888888888888888888888",
"88888885*o:qttq:oooooooooooooooo::ooooo*188888888888888888888888",
"88888885**o:ee:ooooooooooooooooooooooo**888888888888888888888888",
"8888888881*o::ooooooooooooooooooooooo*18888888888888888888888888",
"8888888888****************************88888888888888888888888888",
"8888888888555555555555555555555555555588888888888888888888888888",
"8888888888888888888888888888888888888888888888888888888888888888",
"8888888888888888888888888888888888888888888888888888888888888888",
"8888888888888888888888888888888888888888888888888888888888888888",
"8888888888888888888888888888888888888888888888888888888888888888",
"8888888888888888888888888888888888888888888888888888888888888888",
"8888888888888888888888888888888888888888888888888888888888888888",
"8888888888888888888888888888888888888888888888888888888888888888",
"8888888888888888888888888888888888888888888888888888888888888888",
"8888888888888888888888888888888888888888888888888888888888888888",
"8888888888888888888888888888888888888888888888888888888888888888",
"8888888888888888888888888888888888888888888888888888888888888888",
"8888888888888888888888888888888888888888888888888888888888888888",
"8888888888888888888888888888888888888888888888888888888888888888",
"8888888888888888888888888888888888888888888888888888888888888888",
"8888888888888888888888888888888888888888888855558855558888888888",
"88888888888888888888888888888888888888888888****88****5888888888",
"88888888888888888888888888888888888888888881*oo*11*oo*1888888888",
"888888888888888888888888888888888888888888**oooo**oooo**88888888",
"888888888888888888888888888888888888885551*oooooooooooo*18888888",
"88888888888888888888888888888888888885****oooooooooooooo**888888",
"88888888888888888888888888888888888881*oooooooooooooooooo*188888",
"888888888888888888888888888888888888**oooooooooooooooooooo**8888",
"888888888888888888888888888888888881*oooooooooooooooooooooo*1888",
"8888888888888888888888888888888885**oooooooooooooooooooooooo**58",
"8888888888888888888888888888888885****************************58",
"8888888888888888888888888888888888855555555555555555555555555588",
"8888888888888888888888888888888888888888888888888888888888888888",
"8888888888888888888888888888888888888888888888888888888888888888",
"8888888888888888888888888888888888888888888888888888888888888888",
"8888888888888888888888888888888888888888888888888888888888888888",
"8888888888888888888888888888888888888888888888888888888888888888",
"8888888888888888888888888888888888888888888888888888888888888888",
"8888888888888888888888888888888888888888888888888888888888888888",
"8888888888888888888888888888888888888888888888888888888888888888",
"8888888888888888888888888888888888888888888888888888888888888888"
};
