/* XPM */
static char *coin_resized[] = {
/* columns rows colors chars-per-pixel */
"64 64 31 1 ",
"  c black",
". c #0E0001",
"X c #0F0001",
"o c #0F0101",
"O c #1C0001",
"+ c #1D0001",
"@ c #0A1600",
"# c #0A1800",
"$ c #0B1800",
"% c #171501",
"& c #181501",
"* c #181601",
"= c #152D00",
"- c #870806",
"; c #940606",
": c #950606",
"> c #960606",
", c #A20707",
"< c #A30707",
"1 c #A40707",
"2 c #A50707",
"3 c #67CF00",
"4 c #70E400",
"5 c #71E600",
"6 c #71E700",
"7 c #72E800",
"8 c #7BFA00",
"9 c #32CD32",
"0 c #7DFD00",
"q c #7DFE00",
"w c #7DFF00",
/* pixels */
"9999999999999999999999999999999999999999999999999999999999999999",
"9999999999999999999999999999999999999999999999999999999999999999",
"9999999999999999999999999999999999999999999999999999999999999999",
"9999999999999999999999999999999999999999999999999999999999999999",
"9999999999999999999999999999999999999999999999999999999999999999",
"9999999999999999999999999999999999999999999999999999999999999999",
"9999999999999999999999999999999999999999999999999999999999999999",
"9999999999994444444444999999999999999999994444444444999999999999",
"999999999997=@######@=79999999999999999997=@######@=799999999999",
"999999999973%........%37999999999999999973*........*379999999999",
"9999999997=%->>>>>>>>-%=7999999999999997=%->>>>>>>>-%=7999999999",
"9999999973%O>22222222>O%3799999999999973%O>22222222>O%3799999999",
"99999997=%->2222222222>-%=799999999997=%->2222222222>-%=79999999",
"99999973%O>222222222222>O%379999999973%O>222222222222>O%37999999",
"999997=%->22222222222222>-%=79999997=%->22222222222222>-%=799999",
"999973%O>2222222222222222>O%37999973%O>2222222222222222>O%379999",
"9997=%->222222222222222222>-%=7997=%->222222222222222222>-%=7999",
"9973%O>22222222222222222222>O%3443%O>22222222222222222222>O%3799",
"97=%->2222222222222222222222>-%##%->2222222222222222222222>-%=79",
"43%O>222222222222222222222222>O..O>222222222222222222222222>O%34",
"#*->22222222222222222222222222>>>>22222222222222222222222222>-*#",
" .>2222222222222222222222222222222222222222222222222222222222>. ",
" .>2222222222222222222222222222222222222222222222222222222222>. ",
" .>2222222222222222222222222222222222222222222222222222222222>. ",
" .>2222222222222222222222222222222222222222222222222222222222>. ",
" .>2222222222222222222222222222222222222222222222222222222222>. ",
" .>2222222222222222222222222222222222222222222222222222222222>. ",
" .>2222222222222222222222222222222222222222222222222222222222>. ",
" .>2222222222222222222222222222222222222222222222222222222222>. ",
" .>2222222222222222222222222222222222222222222222222222222222>. ",
" .>2222222222222222222222222222222222222222222222222222222222>. ",
" .>2222222222222222222222222222222222222222222222222222222222>. ",
" .>2222222222222222222222222222222222222222222222222222222222>. ",
"#*->22222222222222222222222222222222222222222222222222222222>-*#",
"43%O>222222222222222222222222222222222222222222222222222222>O%34",
"97=%->2222222222222222222222222222222222222222222222222222>-%=79",
"9973%O>22222222222222222222222222222222222222222222222222>O%3799",
"9997=%->222222222222222222222222222222222222222222222222>-%=7999",
"999973%O>2222222222222222222222222222222222222222222222>O%379999",
"999997=%->22222222222222222222222222222222222222222222>-%=799999",
"99999973%O>222222222222222222222222222222222222222222>O%37999999",
"99999997=%->2222222222222222222222222222222222222222>-%=79999999",
"9999999973%O>22222222222222222222222222222222222222>O%3799999999",
"9999999997=%->222222222222222222222222222222222222>-%=7999999999",
"999999999973%O>2222222222222222222222222222222222>O%379999999999",
"999999999997=%->22222222222222222222222222222222>-%=799999999999",
"99999999999973%O>222222222222222222222222222222>O%37999999999999",
"99999999999997=%->2222222222222222222222222222>-%=79999999999999",
"9999999999999973%O>22222222222222222222222222>O%3799999999999999",
"9999999999999997=%->222222222222222222222222>-%=7999999999999999",
"999999999999999973%O>2222222222222222222222>O%379999999999999999",
"999999999999999997=%->22222222222222222222>-%=799999999999999999",
"99999999999999999973%O>222222222222222222>O%37999999999999999999",
"99999999999999999997=%->2222222222222222>-%=79999999999999999999",
"9999999999999999999973%O>22222222222222>O%3799999999999999999999",
"9999999999999999999997=%->222222222222>-%=7999999999999999999999",
"999999999999999999999973%O>2222222222>O%379999999999999999999999",
"999999999999999999999997=%->22222222>-%=799999999999999999999999",
"99999999999999999999999973%O>222222>O%37999999999999999999999999",
"99999999999999999999999997=%->2222>-%=79999999999999999999999999",
"9999999999999999999999999973%O>22>O%3799999999999999999999999999",
"9999999999999999999999999997=%->>-%=7999999999999999999999999999",
"999999999999999999999999999973*..*379999999999999999999999999999",
"999999999999999999999999999994#  #499999999999999999999999999999"
};
