/* XPM */
static char *exit_resized[] = {
/* columns rows colors chars-per-pixel */
"64 64 78 1 ",
"  c #000000",
". c #040404",
"X c #080808",
"o c #272727",
"O c #2B2B2B",
"+ c #2D2E2E",
"@ c #2F2E2E",
"# c #2E2E2F",
"$ c #2E2F2F",
"% c #2F2F2F",
"& c #302F2F",
"* c #382B2B",
"= c #392B2B",
"- c #3A2B2B",
"; c #392C2C",
": c #34312E",
"> c #37332F",
", c #38332F",
"< c #38342F",
"1 c #303030",
"2 c #313030",
"3 c #3D3A36",
"4 c #3D3B37",
"5 c #3E3B36",
"6 c #3F3B36",
"7 c #3F3C37",
"8 c #4E483F",
"9 c #604122",
"0 c #634323",
"q c #654321",
"w c #684522",
"e c #694522",
"r c #6C4723",
"t c #7F542B",
"y c #8E0E0E",
"u c #980B0B",
"i c #990B0B",
"p c #A30707",
"a c #A40707",
"s c #82562B",
"d c #83562B",
"f c #845629",
"g c #87582A",
"h c #88582A",
"j c #8A592A",
"k c #8B592A",
"l c #8B5A2B",
"z c #8C5A2B",
"x c #8C5B2C",
"c c #895E33",
"v c #926232",
"b c #926233",
"n c #936334",
"m c #996A3B",
"M c #9A6B3B",
"N c #9A6B3C",
"B c #BF9F77",
"V c #BFA077",
"C c #C7A377",
"Z c #CFA776",
"A c #CFA777",
"S c #CEAB7F",
"D c #CEAC7F",
"F c #D0A877",
"G c #D6AF7E",
"H c #D7B07F",
"J c #D0AD80",
"K c #D7B080",
"L c #D8B180",
"P c #DCB786",
"I c #DDB786",
"U c #DDB787",
"Y c #DEB887",
"T c #DFB887",
"R c #DFB987",
"E c #DEB988",
"W c #DFB988",
"Q c #E0B988",
/* pixels */
"                  O1OOO111OOOO%1OOO111OOO%1O1O                  ",
"                 XO1OO%111OOOO11OOOO1111OO%%1OX                 ",
"                oOO1OOOO%%%O%%OOOOOOO%%O%O%11OOo                ",
"               XO1OOO15777777777555577777511%O1OX               ",
"              OOO111O5VDDDDDJDDDDDDDDDDDJV5OOO1OOo              ",
"             XO1%OO158JQRRRRQQWWRRRRRRRRQJ851O1%1OX             ",
"            oOO1O%O5VJURRRRRRRWRRRRRRRRRRUJV5OOO1OOo            ",
"           XO111O158JQRRRRRRRRRRRRRRRRRRRRQJ851OOO1OX           ",
"          oOOOO%O5BJURRRRRRRRRRRRRRRRRRRRRRUJB5OO%1OOo          ",
"         XO1OOO158JWRRRRRRRRRRRRRRRRRRRRRRRRWJ851OO11OX         ",
"        oOOOOOO5BJURRRRRRRRRRRRRRRRRRRRRRRRRRUJB5OO%1%Oo        ",
"       XO1OOO158JWRRRRRRRRRRRRRRRRRRRRRRRRRRRRWJ851%1O1OX       ",
"      oOO1OOO5VJURRRRRRRRRRRRRRRRRRRRRRRRRRRRRRUJV5OOO1OOo      ",
"     XO111O158JQRRRRRRRRRRRRRRRRRRRRRRRRRRRRRRRRQJ851O%O1OX     ",
"    oOOOO1O5VJRWRRRRRRRRRRRRRRRRRRRRRRRRRRRRRRRRWRJV5OOOOOOo    ",
"   XO11OO158JRKKURRRRRRUHGGGGGGGGGGGGGGHURRRRRRUUKRJ851OOO1OX   ",
"  OOOOOOO5BJUHMMHRRRRRRHMvvvvvvvvvvvvvvMHRRRRRRHMMHUJV5OOOOOOo  ",
" XO1OOOOO5DQWGvvGRRRRRRGvllllllllllllllvGWRRRRRGvvGWQD7OOOO11OX ",
"OO%1%%OOO5DRWGvvGWRRRRWHvllllllllllllllvHWRRRRWGvvHWWD5O%%%%%OOO",
"%&======O5DWWGvvZHURRUKZvllllllllllllllvZKURRUHZvvHWWD5O======&1",
"%=yuuuuy=7DWRGvlvMHRWKMvllllllllllllllllvMKWRHMvlvGWWD5=yuuuuy=%",
"%=uaaaau=7DWRHMvlvGRKZvlllllllgggggllllllvZKRGvlvMHRWD7=uaaaau=%",
"O=uaaaau=7DWRUHZvvHUMvlllllleeeeeeeellllllvMUHvvZKURWD7=uaaaau=O",
"O=uaaaau=7DQRRWGvvFFvllllllfeqqqqqqefllllllvFFvvHWRRWD7=uaaaau=O",
"O=uaaaau=5DRRRRGvlvvlllllleeqqqqqqqqeellllllvvlvGRRRRD5=uaaaau=O",
"O=uaaaau=5DRRRRGvllllllllfeqqqqqqqqqqefllllllllvGRRRRD5=uaaaau=O",
"O=uaaaau=7DRRRWGvllllllleeqqqqqqqqqqqqeelllllllvGRRRRD5=uaaaau=O",
"O=uaaaau=7DRRRRGvllllllfeqqqqqqqqqqqqqqefllllllvGRRRRD5=uaaaau=O",
"O=uaaaau=5DRRRWGvllllleeqqqqqqqqqqqqqqqqeelllllvGRRRRD7=uaaaau=%",
"O=uaaaau=5DRRRWGvllllfeqqqqqqqqqqqqqqqqqqefllllvGWRRRD7=uaaaau=O",
"O=uaaaau=5DRRRRGvllleeqqqqqqqqqqqqqqqqqqqqeelllvGRRRRD5=uaaaau=O",
"O=uaaaau=5DRRRWGvllleqqqqqqqqqqqqqqqqqqqqqqegllvGRRRRD5=uaaaau=%",
"O=uaaaau=7DRRRRGvllgeqqqqqqqqqqqqqqqqqqqqqqegllvGRRRRD5=uaaaau=%",
"O=uaaaau=7DRRRRGvllgeqqqqqqqqqqqqqqqqqqqqqqegllvGRRRRD5=uaaaau=%",
"%=uaaaau=7DRRRRGvllleqqqqqqqqqqqqqqqqqqqqqqegllvGRRRRD5=uaaaau=O",
"%=uaaaau=7DRRRRGvllleqqqqqqqqqqqqqqqqqqqqqqelllvGRRRRD5=uaaaau=O",
"%=uaaaau=5DRRRRGvllleqqqqqqqqqqqqqqqqqqqqqqelllvGRRRWD5=uaaaau=O",
"O=uaaaau=5DRRRRGvllgeqqqqqqqqqqqqqqqqqqqqqqelllvGRRRWD7=uaaaau=O",
"O=uaaaau=5DRRRRGvllgeqqqqqqqqqqqqqqqqqqqqqqegllvGRRRWD5=uaaaau=O",
"%=uaaaau=5DRRRRGvllgeqqqqqqqqqqqqqqqqqqqqqqegllvGRRRWD5=uaaaau=O",
"O=uaaaau=5DWRRRGvllgeqqqqqqqqqqqqqqqqqqqqqqegllvGRRRRD5=uaaaau=%",
"O=uaaaau=5DWRRRGvllgeqqqqqqqqqqqqqqqqqqqqqqegllvGRRRRD5=uaaaau=O",
"O=uaaaau=7DWRRRGvllleqqqqqqqqqqqqqqqqqqqqqqegllvGRRRRD5=uaaaau=O",
"O=uaaaau=5DWRRRGvllleqqqqqqqqqqqqqqqqqqqqqqelllvGRRRRD5=uaaaau=%",
"O=uaaaau=5DRRRRGvllleqqqqqqqqqqqqqqqqqqqqqqelllvGRRRRD7=uaaaau=%",
"O=uaaaau=5DRRRRGvllgeqqqqqqqqqqqqqqqqqqqqqqelllvGRRRRD7=uaaaau=%",
"%=uaaaau=5DRRRRGvllgeqqqqqqqqqqqqqqqqqqqqqqegllvGRRRRD7=uaaaau=O",
"%=uaaaau=5DRRRRGvllgeqqqqqqqqqqqqqqqqqqqqqqegllvGRRRRD7=uaaaau=O",
"%=uaaaau=5DRRRRGvllgeqqqqqqqqqqqqqqqqqqqqqqegllvGWRRRD5=uaaaau=O",
"O=uaaaau=5DRRRRGvllgeqqqqqqqqqqqqqqqqqqqqqqegllvGWRRRD5=uaaaau=O",
"O=uaaaau=7DRRRWGvllgeqqqqqqqqqqqqqqqqqqqqqqegllvGWRRRD5=uaaaau=O",
"%=uaaaau=7DRRRRGvllgeqqqqqqqqqqqqqqqqqqqqqqegllvGWRRRD5=uaaaau=O",
"O=uaaaau=5DRRRRGvllgeqqqqqqqqqqqqqqqqqqqqqqegllvGRRRRD7=uaaaau=%",
"O=uaaaau=5DRRRRGvllgeqqqqqqqqqqqqqqqqqqqqqqelllvGWRRRD7=uaaaau=O",
"O=uaaaau=5DRRRRGvllgeqqqqqqqqqqqqqqqqqqqqqqelllvGRRRRD5=uaaaau=$",
"O=uaaaau=5DRRRRGvllgeqqqqqqqqqqqqqqqqqqqqqqelllvGRRRRD5=uaaaau=O",
"O=uaaaau=7DWRRRGvllleqqqqqqqqqqqqqqqqqqqqqqelllvGRRRWD7=uaaaau=%",
"O=uaaaau=7DWRRRGvllleqqqqqqqqqqqqqqqqqqqqqqelllvGRRRWD7=uaaaau=%",
"%=uaaaau=5DWWRWHvllleqqqqqqqqqqqqqqqqqqqqqqegllvGRRRWD7=uaaaau=%",
"%=uaaaau=5DWWWWGvllleqqqqqqqqqqqqqqqqqqqqqqegllvGRRRQD7=uaaaau=%",
"%=uaaaau=5DQWWQHvllleqqqqqqqqqqqqqqqqqqqqqqegllvHWWWQD7=uaaaau=O",
"O=yuuuuy=5VDDDDCcfftqqqqqqqqq999qqqqq999qqqqtffcCDDDJV5=yuuuuy=O",
"O&======&1577775<>>>>>>>>>>>>>>>>>>>>>>>>>>>>>><5555751&======&O",
"OO%%%%OOOOOOOOOOOOOO%%%%OOOO%%%OOOOO%%%OOOOO%%%OOOOOOOOOOOOO%%%O"
};
