/* XPM */
static char *player_resized[] = {
/* columns rows colors chars-per-pixel */
"64 64 202 2 ",
"   c #151D1F",
".  c #0F1C1A",
"X  c #18251F",
"o  c #0B201D",
"O  c #0F1D20",
"+  c #1B1426",
"@  c #151D22",
"#  c #1C1C25",
"$  c #1D1D2A",
"%  c #171F28",
"&  c #152324",
"*  c #1B2526",
"=  c #1C2826",
"-  c #1D2529",
";  c #1E2A2B",
":  c #172629",
">  c #1C3422",
",  c #1B3B22",
"<  c #1C3529",
"1  c #212524",
"2  c #212827",
"3  c #22252A",
"4  c #212B2C",
"5  c #3B2C2C",
"6  c #20312F",
"7  c #223E2C",
"8  c #232D31",
"9  c #233233",
"0  c #293639",
"q  c #2B3B3D",
"w  c #263639",
"e  c #3E3C34",
"r  c #5A1F1E",
"t  c #731919",
"y  c #7D1C1C",
"u  c #761817",
"i  c #6F1818",
"p  c #531F20",
"a  c #422223",
"s  c #4D2A2A",
"d  c #4A292B",
"f  c #522324",
"g  c #592929",
"h  c #502E30",
"j  c #423130",
"k  c #4E3A3A",
"l  c #692928",
"z  c #633634",
"x  c #762020",
"c  c #19481E",
"v  c #1C4123",
"b  c #1C4B24",
"n  c #1D5524",
"m  c #1D5C23",
"M  c #175F24",
"N  c #214627",
"B  c #235C2A",
"V  c #284936",
"C  c #305D3D",
"Z  c #1E6522",
"A  c #1F6D21",
"S  c #206D25",
"D  c #226427",
"F  c #217324",
"G  c #227B24",
"H  c #25722B",
"J  c #28762E",
"K  c #454139",
"L  c #4C453C",
"P  c #554A3C",
"I  c #504927",
"U  c #72433A",
"Y  c #77473E",
"T  c #6A4E2A",
"R  c #5D6123",
"E  c #2D3D41",
"W  c #303F41",
"Q  c #2F4244",
"!  c #2F4348",
"~  c #314345",
"^  c #33464A",
"/  c #354A4D",
"(  c #394A4C",
")  c #384649",
"_  c #364C51",
"`  c #394E52",
"'  c #365054",
"]  c #3C5154",
"[  c #3D5559",
"{  c #3E585C",
"}  c #3D5950",
"|  c #3A574C",
" . c #5D5245",
".. c #415356",
"X. c #425659",
"o. c #425A5D",
"O. c #4D4C47",
"+. c #7A4946",
"@. c #685545",
"#. c #765D49",
"$. c #785D49",
"%. c #7A614D",
"&. c #77604D",
"*. c #7F6550",
"=. c #455D61",
"-. c #4A5F63",
";. c #466164",
":. c #4A6266",
">. c #466468",
",. c #4C6569",
"<. c #4C696D",
"1. c #51696D",
"2. c #526D71",
"3. c #567276",
"4. c #597377",
"5. c #577478",
"6. c #597579",
"7. c #5C7A7D",
"8. c #636E6E",
"9. c #6C7170",
"0. c #851D1E",
"q. c #881F20",
"w. c #9C1D26",
"e. c #8D2625",
"r. c #932627",
"t. c #992527",
"y. c #922926",
"u. c #952728",
"i. c #942B29",
"p. c #9A2929",
"a. c #982A27",
"s. c #92382B",
"d. c #A6272D",
"f. c #A3292C",
"g. c #A9252D",
"h. c #A53231",
"j. c #A83031",
"k. c #8C694D",
"l. c #916B51",
"z. c #976656",
"x. c #8B715D",
"c. c #957154",
"v. c #9A7456",
"b. c #9C7658",
"n. c #8B6B52",
"m. c #A57C5C",
"M. c #967962",
"N. c #248126",
"B. c #258C27",
"V. c #258028",
"C. c #269427",
"Z. c #279A27",
"A. c #279A28",
"S. c #289929",
"D. c #29A52A",
"F. c #2AAB2A",
"G. c #27A427",
"H. c #2EBC2D",
"J. c #2CB32C",
"K. c #38BA2E",
"L. c #598A2C",
"P. c #508E29",
"I. c #4D9128",
"U. c #469726",
"Y. c #4E8F27",
"T. c #2FC52E",
"R. c #30C52F",
"E. c #30C82F",
"W. c #31C530",
"Q. c #33CD32",
"!. c #33CC32",
"~. c #33CE32",
"^. c #33CD32",
"/. c #2ED633",
"(. c #2CD932",
"). c #33D131",
"_. c #34D333",
"`. c #35DB33",
"'. c #37E135",
"]. c #76807F",
"[. c #AD815F",
"{. c #B68C6D",
"}. c #BE9372",
"|. c #C09473",
" X c #C59977",
".X c #C99B79",
"XX c #C79B79",
"oX c #777F80",
"OX c #898C87",
"+X c #90A29D",
"@X c #A3A39C",
"#X c #A5A99F",
"$X c #98A3A1",
"%X c #A4ABA8",
"&X c #B7BBB8",
"*X c #ADB6B3",
"=X c #C5BFBA",
"-X c #B2C1BF",
";X c #ADC1BB",
":X c #CCD2CF",
">X c #DAE4DE",
",X c #DFE3E4",
/* pixels */
"Q.Q.Q.Q.Q.Q.Q.Q.Q.Q.Q.Q.Q.Q.Q.Q.Q.Q.Q.Q.Q.Q.Q.Q.Q.Q.Q.Q.(.R w.y.y.w.T /.).Q.Q.Q.~.Q.Q.Q.Q.Q.Q.Q.Q.Q.Q.Q.Q.Q.Q.Q.Q.Q.Q.Q.Q.Q.Q.Q.",
"Q.Q.Q.Q.Q.Q.Q.Q.Q.Q.Q.Q.Q.Q.Q.Q.Q.Q.Q.Q.Q.Q.Q.Q.Q.Q.!.K.K.T w.i.u.t.T K.K.W.~.~.~.~.Q.Q.Q.Q.Q.Q.Q.Q.Q.Q.Q.Q.Q.Q.Q.Q.Q.Q.Q.Q.Q.Q.",
"Q.Q.Q.Q.Q.Q.Q.Q.Q.Q.Q.Q.Q.Q.Q.Q.Q.Q.Q.Q.Q.Q.Q.Q.!._.U.i.s.i.r.u.u.r.i.s.i.P./.!.Q.Q.Q.Q.Q.Q.Q.Q.Q.Q.Q.Q.Q.Q.Q.Q.Q.Q.Q.Q.Q.Q.Q.Q.",
"Q.Q.Q.Q.Q.Q.Q.Q.Q.Q.Q.Q.Q.Q.Q.Q.Q.Q.Q.Q.Q.Q.Q.Q.!./.Y.d.j.p.r.u.u.r.p.h.g.L.(.!.Q.Q.Q.Q.Q.Q.Q.Q.Q.Q.Q.Q.Q.Q.Q.Q.Q.Q.Q.Q.Q.Q.Q.Q.",
"Q.Q.Q.Q.Q.Q.Q.Q.Q.Q.Q.Q.Q.Q.Q.Q.Q.Q.Q.Q.Q.Q.Q.Q.!./.I.f.h.p.r.u.u.r.p.h.d.L.(.!.Q.Q.Q.Q.Q.Q.Q.Q.Q.Q.Q.Q.Q.Q.Q.Q.Q.Q.Q.Q.Q.Q.Q.Q.",
"Q.Q.Q.Q.Q.Q.Q.Q.Q.Q.Q.Q.Q.Q.Q.Q.Q.Q.Q.Q.Q.Q.Q.Q.!./.I.f.h.p.r.u.u.r.p.h.d.L./.!.Q.Q.Q.Q.Q.Q.Q.Q.Q.Q.Q.Q.Q.Q.Q.Q.Q.Q.Q.Q.Q.Q.Q.Q.",
"Q.Q.Q.Q.Q.Q.Q.Q.Q.Q.Q.Q.Q.Q.Q.Q.Q.Q.Q.Q.Q.).).).~.(.I.f.h.p.r.r.r.r.p.h.d.L.(.~.).).).Q.Q.Q.Q.Q.Q.Q.Q.Q.Q.Q.Q.Q.Q.Q.Q.Q.Q.Q.Q.Q.",
"Q.Q.Q.Q.Q.Q.Q.Q.Q.Q.Q.Q.Q.Q.Q.Q.Q.Q.Q.Q.Q.G n m m M I p.p.u.r.r.e.e.r.p.f.I M B m n F Q.Q.Q.Q.Q.Q.Q.Q.Q.Q.Q.Q.Q.Q.Q.Q.Q.Q.Q.Q.Q.",
"Q.Q.Q.Q.Q.Q.Q.Q.Q.Q.Q.Q.Q.Q.Q.Q.Q.Q.Q.).).c $ - - % s a.y.r.e.e.e.e.e.r.p.f & 3 - $ , Q.).Q.Q.Q.Q.Q.Q.Q.Q.Q.Q.Q.Q.Q.Q.Q.Q.Q.Q.Q.",
"Q.Q.Q.Q.Q.Q.Q.Q.Q.Q.Q.Q.Q.Q.Q.Q.Q.Q.!.H.H.b ; 4 4 ; s p.y.r.e.e.e.e.e.y.p.s ; 4 ; ; v H.H.W.Q.Q.Q.Q.Q.Q.Q.Q.Q.Q.Q.Q.Q.Q.Q.Q.Q.Q.",
"Q.Q.Q.Q.Q.Q.Q.Q.Q.Q.Q.Q.Q.Q.Q.Q.!._.N.X > Q / ~ ; : d r.e.e.0.0.0.0.q.e.r.s : ; ~ / ~ > = G _.!.Q.Q.Q.Q.Q.Q.Q.Q.Q.Q.Q.Q.Q.Q.Q.Q.",
"Q.Q.Q.Q.Q.Q.Q.Q.Q.Q.Q.Q.Q.Q.Q.Q._.'.G # ; ! ` ^ ; : d t.r.e.0.0.0.0.q.r.t.f : - ^ ' ^ ; $ F '._.~.Q.Q.Q.Q.Q.Q.Q.Q.Q.Q.Q.Q.Q.Q.Q.",
"Q.Q.Q.Q.Q.Q.Q.Q.Q.Q.Q.Q.Q.Q.Q.W.C.A.m - ; Q ` / w 9 j l l x y y y y y l l j 9 9 ^ _ ^ ; - n A.C.H._.Q.Q.Q.Q.Q.Q.Q.Q.Q.Q.Q.Q.Q.Q.",
"Q.Q.Q.Q.Q.Q.Q.Q.Q.Q.Q.Q.Q.!._.F.X * - 4 ; ~ _ _ _ ` E - ; p u i t u r - * E ' _ _ _ ^ ; ; ; - @ Z._.!.Q.Q.Q.Q.Q.Q.Q.Q.Q.Q.Q.Q.Q.",
"Q.Q.Q.Q.Q.Q.Q.Q.Q.Q.Q.Q.Q._.`.F.& ; ; * * Q _ _ / _ q * = p u t t u r 3 : q ` / _ _ ^ * * ; ; * D.`._.Q.Q.Q.Q.Q.Q.Q.Q.Q.Q.Q.Q.Q.",
"Q.Q.Q.Q.Q.Q.Q.Q.Q.Q.Q.Q.Q.F D B q E E E q / ` ` / _ ^ E E 5 a a a a 5 E q ^ _ _ ` ` ( q E E E E B D F !.Q.Q.Q.Q.Q.Q.Q.Q.Q.Q.Q.Q.",
"Q.Q.Q.Q.Q.Q.Q.Q.Q.Q.Q.~.R.> + 8 ' _ _ _ _ ' ] ] _ _ _ _ ' w : ; ; * 9 ' / _ _ _ ] ] ] _ _ _ _ ' 8 # > R.~.Q.Q.Q.Q.Q.Q.Q.Q.Q.Q.Q.",
"Q.Q.Q.Q.Q.Q.Q.Q.Q.Q.Q.~.R.v - 9 _ _ _ _ / ` ] ] _ _ / / _ w 3 ; ; - 9 _ / _ _ _ ] ] ' _ _ _ _ _ 9 - , W.~.Q.Q.Q.Q.Q.Q.Q.Q.Q.Q.Q.",
"Q.Q.Q.Q.Q.Q.Q.Q.Q.Q.Q.~.R., - 8 _ _ ` ] ' o.o.o.o.o.[ _ _ / ^ ^ ^ ^ / _ _ [ o.o.o.o.o.' ] ` _ _ 9 - , W.~.Q.Q.Q.Q.Q.Q.Q.Q.Q.Q.Q.",
"Q.Q.Q.Q.Q.Q.Q.Q.Q.Q.Q.~.R., - 9 _ _ ` ] ] o.=.=.=.=.[ / / _ _ _ _ _ _ _ / [ =.=.=.=.o.] ] ` / _ 9 - , W.~.Q.Q.Q.Q.Q.Q.Q.Q.Q.Q.Q.",
"Q.Q.Q.Q.Q.Q.Q.Q.Q.Q.Q.~.!.v - 9 _ _ ` ] ] o.=.=.=.;.{ _ ` ` ` ` ` ` ` ` ` { ;.=.=.=.o.] ] ` / _ 9 - , W.~.Q.Q.Q.Q.Q.Q.Q.Q.Q.Q.Q.",
"Q.Q.Q.Q.Q.Q.Q.Q.Q.Q.Q.~.!.v - 9 _ _ ` ] ] o.o.=.;.>.;.=.=.=.=.=.=.=.=.=.o.;.>.;.=.o.o.] ] ` _ _ 9 - , W.~.Q.Q.Q.Q.Q.Q.Q.Q.Q.Q.Q.",
"Q.Q.Q.Q.Q.Q.Q.Q.Q.Q.Q.~.!.v - 8 _ _ ` ..] =.=.;.<.<.>.=.=.=.=.=.=.=.=.=.=.,.<.<.;.=.=.] ..' / _ 9 - , W.~.Q.Q.Q.Q.Q.Q.Q.Q.Q.Q.Q.",
"Q.Q.Q.Q.Q.Q.Q.Q.Q.Q.Q.~.!.v - 8 _ _ ~ q q Q Q Q ! ~ ~ Q ~ ~ ~ ~ ~ ~ ~ ~ ~ ! ! ~ Q Q W q q ~ _ _ 9 - , W.~.Q.Q.Q.Q.Q.Q.Q.Q.Q.Q.Q.",
"Q.Q.Q.Q.Q.Q.Q.Q.Q.Q.Q.~.!.v - 9 / ` q * - * * - : * * : : : : * : : : : : : * * : : * - * 0 _ _ 9 - , W.~.Q.Q.Q.Q.Q.Q.Q.Q.Q.Q.Q.",
"Q.Q.Q.Q.Q.Q.Q.Q.Q.Q.Q.~.!.v - 9 / _ q 1 2 3 - ; 2 2 = 2 2 2 2 2 2 2 2 2 2 4 3 3 ; = = 2 1 q _ / 9 - , W.~.Q.Q.Q.Q.Q.Q.Q.Q.Q.Q.Q.",
"Q.Q.Q.Q.Q.Q.Q.Q.Q.Q.Q.~.!.v - ; 9 ; L %.#.OX+XOXh s z %.#.$.#.#.#.#.#.#.%.U s h OX$XOX#.%.L ; 8 ; - , W.~.Q.Q.Q.Q.Q.Q.Q.Q.Q.Q.Q.",
"Q.Q.Q.Q.Q.Q.Q.Q.Q.Q.Q.~.W., $ - ; & P v.k.@X;X#Xg g U l.k.k.k.k.k.k.k.k.l.U g g @X&X#Xk.v.P & ; - - > W.~.Q.Q.Q.Q.Q.Q.Q.Q.Q.Q.Q.",
"Q.Q.Q.Q.Q.Q.Q.Q.Q.Q.Q.Q.!.m v v 4 : K %.@.@X-X%Xz l Y v.c.c.c.c.c.c.c.c.v.+.g z @X-X#X@.$.L : 4 v b m !.Q.Q.Q.Q.Q.Q.Q.Q.Q.Q.Q.Q.",
"Q.Q.Q.Q.Q.Q.Q.Q.Q.Q.Q.Q.Q.!.).G.: ; ; 4 & $X:X&X+.U z. X}.|.}.}.}.}.}.}. Xz.U +.&X:X%X* 4 ; ; * Z.).!.Q.Q.Q.Q.Q.Q.Q.Q.Q.Q.Q.Q.Q.",
"Q.Q.Q.Q.Q.Q.Q.Q.Q.Q.Q.Q.Q.Q._.F.* ; ; ; & %X,X:X+.Y z. X}.|.|.|.|.|.|.}. Xz.+.+.=X>X*X& ; ; ; * A._.Q.Q.Q.Q.Q.Q.Q.Q.Q.Q.Q.Q.Q.Q.",
"Q.Q.Q.Q.Q.Q.Q.Q.Q.Q.Q.Q.Q.!._.D.* ; 9 W q 8.oX9.k j $. X}.|.|.|.|.|.|.}.XX$.j k 9.].8.q W w ; * Z._.!.Q.Q.Q.Q.Q.Q.Q.Q.Q.Q.Q.Q.Q.",
"Q.Q.Q.Q.Q.Q.Q.Q.Q.Q.Q.Q.Q.!._.D.: * q X...; . & - @  ..X}.|.|.|.|.}.|.}..X .o = &   - ..X.~ * : A._.!.Q.Q.Q.Q.Q.Q.Q.Q.Q.Q.Q.Q.Q.",
"Q.Q.Q.Q.Q.Q.Q.Q.Q.Q.Q.Q.Q.!._.D.: * q ..] w ; 4 4 &  .XX}.}.}.}.}.}.}.}..X@.& 4 4 3 9 ] ..E ; : A._.!.Q.Q.Q.Q.Q.Q.Q.Q.Q.Q.Q.Q.Q.",
"Q.Q.Q.Q.Q.Q.Q.Q.Q.Q.Q.Q.Q.!._.D.* = q ` _ [ { [ ' ' ( K e M. X}.}. XM.e K O.] ' [ { [ / ` q = * A._.!.Q.Q.Q.Q.Q.Q.Q.Q.Q.Q.Q.Q.Q.",
"Q.Q.Q.Q.Q.Q.Q.Q.Q.Q.Q.Q.Q.!._.D.* - q ` _ ;.<.,.=.:.^ & O x..X}.}..XM.@ & ^ :.=.,.<.;./ ' E - # A._.!.Q.Q.Q.Q.Q.Q.Q.Q.Q.Q.Q.Q.Q.",
"Q.Q.Q.Q.Q.Q.Q.Q.Q.Q.Q.Q.Q.Q._.J.b b V ^ ~ { ;.=.o.;./ ; : x.|.{.{.}.x.* - ^ ;.o.=.;.o.~ ^ V b v F._.Q.Q.Q.Q.Q.Q.Q.Q.Q.Q.Q.Q.Q.Q.",
"Q.Q.Q.Q.Q.Q.Q.Q.Q.Q.Q.Q.Q.Q.Q.Q.R.).F * ; ~ _ _ o.;./ - : #.m.b.b.m.%.: - ^ ;.o._ _ ^ ; - S Q.R.Q.Q.Q.Q.Q.Q.Q.Q.Q.Q.Q.Q.Q.Q.Q.Q.",
"Q.Q.Q.Q.Q.Q.Q.Q.Q.Q.Q.Q.Q.Q.Q.Q._.'.G # ; ~ _ _ =.:./ - : &.[.m.m.m.*.: : / :.=.' _ ^ ; $ F `._.Q.Q.Q.Q.Q.Q.Q.Q.Q.Q.Q.Q.Q.Q.Q.Q.",
"Q.Q.Q.Q.Q.Q.Q.Q.Q.Q.Q.Q.Q.Q._.R.G V.n - ; 0 q q ~ ^ q ; * L @.@.@.@.L * - q ^ ~ q q q ; - b V.G H._.Q.Q.Q.Q.Q.Q.Q.Q.Q.Q.Q.Q.Q.Q.",
"Q.Q.Q.Q.Q.Q.Q.Q.Q.Q.Q.Q.Q.Q._.F.  - - 4 4 - - - * * - ; ; : : : : : : ; ; - * * - - - ; ; - - # A._.Q.Q.Q.Q.Q.Q.Q.Q.Q.Q.Q.Q.Q.Q.",
"Q.Q.Q.Q.Q.Q.Q.Q.Q.Q.Q.Q.Q.!.Q.D.= ; ; ; ; ; ; ; ; ; ; ; ; ; ; ; ; ; ; ; ; ; ; ; ; ; ; ; ; ; ; * S.Q.W.Q.Q.Q.Q.Q.Q.Q.Q.Q.Q.Q.Q.Q.",
"Q.Q.Q.Q.Q.Q.Q.Q.Q.Q.Q.Q.!.Z N V X.[ o.;.;.-.-.-.-.-.-.-.-.-.-.-.-.-.-.-.-.-.-.-.-.-.-.-.;.o.[ X.V N m !.~.Q.Q.Q.Q.Q.Q.Q.Q.Q.Q.Q.",
"Q.Q.Q.Q.Q.Q.Q.Q.Q.Q.)._.Q., # 9 <.,.2.6.6.6.6.6.6.6.6.6.6.6.6.6.6.6.6.6.6.6.6.6.6.6.6.6.6.2.,.<.0 # > !._.).Q.Q.Q.Q.Q.Q.Q.Q.Q.Q.",
"Q.Q.Q.Q.Q.Q.Q.Q.Q.~.H.F.F.N 8 q :.=.,.2.2.2.2.2.3.3.3.3.3.3.3.3.3.3.3.3.3.3.3.3.2.2.2.2.2.,.=.:.q 4 7 D.F.H.Q.Q.Q.Q.Q.Q.Q.Q.Q.Q.",
"Q.Q.Q.Q.Q.Q.Q.Q.!._.A * < ( ] ' ' ] ] ] ] ] ] [ 3.3.3.3.3.3.3.3.3.3.3.3.3.3.3.3.X.] ..] ] ] ] ] ' ] ( < : D _.!.Q.Q.Q.Q.Q.Q.Q.Q.",
"Q.Q.Q.Q.Q.Q.Q.~.).`.Z + ; ( ..] ] ] ] ` ` ` ` [ 4.6.4.4.4.4.4.4.4.4.4.4.4.4.6.4.[ ` ' ' ` ] ] ] ' ] ( ; # B `.).Q.Q.Q.Q.Q.Q.Q.Q.",
"Q.Q.Q.Q.Q.Q._.J.G V.C / / X.o.X.] ] X.:.;.;.;.:.:.:.:.:.:.:.:.:.:.:.:.:.:.:.:.:.:.:.;.;.:.X.' ] X.o.X./ ( C V.G J._.Q.Q.Q.Q.Q.Q.",
"Q.Q.Q.Q.Q.!._.C.# # ..7.4.,.:.;.] ` :.6.4.4.4.2.' ' ' ' ' ' ' ' ' ' ' ' ' ' ' ' 2.6.4.4.6.:.` ] ;.,.,.4.7.X.* # B.`.!.Q.Q.Q.Q.Q.",
"Q.Q.Q.Q.Q.!._.A.* : [ 7.2.,.:.;.] ` :.4.3.3.3.2.] ] ] ] ] ] ] ] ] ] ] ] ] ] ] ' 2.3.3.3.4.:.` ] -.:.,.3.6.X.= * B._.!.Q.Q.Q.Q.Q.",
"Q.Q.Q.Q.Q.!._.A.* : [ 7.3.2.3.:.9 9 ^ o.o.:.<.,.=.=.:.1.1.1.1.1.1.1.1.1.1.:.=.-.,.<.,.X.=./ 9 9 -.3.2.3.6.X.: * B._.!.Q.Q.Q.Q.Q.",
"Q.Q.Q.Q.Q.!._.C.# * X.7.3.5.7.,.: : q ] ` =.,.:.,.:.<.6.6.6.6.6.6.3.3.5.6.1.:.,.:.,.;.' ] q * * :.7.5.3.7.X.* # B.`.!.Q.Q.Q.Q.Q.",
"Q.Q.Q.Q.Q.!._.D., , | 1.,.,.1.o.; - q [ ` o.:.:.:.:.,.3.2.3.3.3.3.4.3.2.3.1.:.:.:.:.=.' ] E * - X.1.,.,.1.} v , A._.!.Q.Q.Q.Q.Q.",
"Q.Q.Q.Q.Q.Q.Q.!.H.T.D ; 6 4 4 4 ; - q ` / ' ] [ :.:.:.:.:.2.3.3.3.3.2.:.:.:.:.:.[ ] ' / _ q * ; ; 4 4 6 ; D T.H.!.Q.Q.Q.Q.Q.Q.Q.",
"Q.Q.Q.Q.Q.Q.Q.Q.~.`.Z + - - - - 4 - q ' _ ] ] [ ,.,.,.,.,.3.7.6.6.6.3.,.,.,.,.,.X.] ] _ ' E * ; - - - - + m _.~.Q.Q.Q.Q.Q.Q.Q.Q.",
"Q.Q.Q.Q.Q.Q.Q.Q.Q._.C.Z S S F m ; - 9 E q W E ~ ( / ( ( / ` ] ] ] ] ` / ( / / / Q E W q E 9 ; ; m F S S Z C._.Q.Q.Q.Q.Q.Q.Q.Q.Q.",
"Q.Q.Q.Q.Q.Q.Q.Q.Q.Q.).).).).`.F.: ; ; * - - - - - - - : : * * * : : * * * - - - - - - - - ; ; * A.`.).).)._.Q.Q.Q.Q.Q.Q.Q.Q.Q.Q.",
"Q.Q.Q.Q.Q.Q.Q.Q.Q.Q.Q.Q.Q.!.).D.* ; ; ; ; ; ; ; ; ; ; ; ; ; ; ; ; ; ; ; ; ; ; ; ; ; ; ; ; ; ; * A._.!.Q.Q.Q.Q.Q.Q.Q.Q.Q.Q.Q.Q.Q.",
"Q.Q.Q.Q.Q.Q.Q.Q.Q.Q.Q.Q.Q.!._.D.* ; 0 ) ) ~ Q Q Q ~ E 0 q 4 - ; ; ; 4 q 0 E ~ Q Q Q Q ~ ^ 0 ; : A._.!.Q.Q.Q.Q.Q.Q.Q.Q.Q.Q.Q.Q.Q.",
"Q.Q.Q.Q.Q.Q.Q.Q.Q.Q.Q.Q.Q.!._.D.* * q X...' _ _ _ ` / E ~ 9 - ; 4 - 8 ~ E ^ ` _ _ _ ` ] X.W - # A._.!.Q.Q.Q.Q.Q.Q.Q.Q.Q.Q.Q.Q.Q.",
"Q.Q.Q.Q.Q.Q.Q.Q.Q.Q.Q.Q.Q.Q._.F., , V ( ( ^ ^ ^ ^ ^ Q q q 8 - ; 4 - 8 q q Q ^ ^ ^ ^ ^ / ` V , , D._.!.Q.Q.Q.Q.Q.Q.Q.Q.Q.Q.Q.Q.Q.",
"Q.Q.Q.Q.Q.Q.Q.Q.Q.Q.Q.Q.Q.Q.Q.!.H.T.H - 4 4 ; ; ; ; ; ; ; ; ; ; 4 ; ; ; ; ; ; ; ; ; ; 4 - S T.H.!.Q.Q.Q.Q.Q.Q.Q.Q.Q.Q.Q.Q.Q.Q.Q.",
"Q.Q.Q.Q.Q.Q.Q.Q.Q.Q.Q.Q.Q.Q.Q.Q.Q.`.F + - $ $ $ $ $ $ $ $ $ $ $ $ $ $ $ $ $ $ $ $ $ $ - + S `.~.Q.Q.Q.Q.Q.Q.Q.Q.Q.Q.Q.Q.Q.Q.Q.Q.",
"Q.Q.Q.Q.Q.Q.Q.Q.Q.Q.Q.Q.Q.Q.Q.Q.Q._.D.H J J J J J J J J J J J J J J J J J J J J J J J J H S._.Q.Q.Q.Q.Q.Q.Q.Q.Q.Q.Q.Q.Q.Q.Q.Q.Q."
};
