/* XPM */
static char *wall_resized[] = {
/* columns rows colors chars-per-pixel */
"64 64 25 1 ",
"  c #2E2E2E",
". c #2F2F2F",
"X c #303030",
"o c #353535",
"O c #363636",
"+ c #373737",
"@ c #3C3C3C",
"# c #3D3D3D",
"$ c #3E3E3E",
"% c #4C4C4C",
"& c #727272",
"* c #787878",
"= c #797979",
"- c #7A7A7A",
"; c #7F7F7F",
": c #808080",
"> c #818181",
", c #B6B6B6",
"< c #C4C4C4",
"1 c #C5C5C5",
"2 c #C6C6C6",
"3 c #D2D2D2",
"4 c #D3D3D3",
"5 c #D4D4D4",
"6 c #D5D5D5",
/* pixels */
"..............................................X.................",
".X$$$$$$$$$$$$$$XXXXXXXXXX$$XXXXXXXXXX$$XXXXXXXX$$$$$$$$$$$$$$X.",
".$,<<<<<<<<<<<<,$X&==========================&X$,<<<<<<<<<<<<,$.",
".$<4<<<<<<44444<$X=>>>========>>>>========>>>=X$<4<<<<<<44444<$.",
".$<<%$$$$%<4444<$X=>>=$XXXXXX$=>>=$XXXXXX$=>>=X$<<%$$$$%<4444<$.",
".$<<%$$$$%<4444<$X=>>=$XXXXXX$=>>=$XXXXXX$=>>=X$<<%$$$$%<4444<$.",
".$<4<<<<<<44444<$X=>>>========>>>>=========>>=X$<4<<<<<<44444<$.",
".$<44444<<<<<<4<$X=>>>>>>>============>>>>>>>=X$<44444<<<<<<4<$.",
".$<4444<%$$$$%<<$X=>>>>>>=$XXXXX$$XXX$=>>>>>>=X$<4444<%$$$$%<<$.",
".$<4444<%$$$$%<<$X=>>>>>>=$XXXXX$XXXX$=>>>>>>=X$<4444<%$$$$%<<$.",
".$<44444<<<<<<4<$X=>>>>>>>============>>>>>>>=X$<44444<<<<<<4<$.",
".$<4<<<<<<44444<$X&==========================&X$<4<<<<<<44444<$.",
".$<<%$$$$%<4444<$.XXXXXXXXXX$$$XXXXXXXXXXXXXXXX$<<%$$$$%<4444<$.",
".$<<%$$$$%<4444<$.XXXXXXXXXX$$XXX$XXXXXXXXXXXX.$<<%$$$$%<4444<$.",
".$<4<<<<<<44444<$X&==========================&X$<4<<<<<<44444<$.",
".$,<<<<<<<<<<<<,$X=>>>>>>>>=>>>>>>>>>>>>>>>>>=X$,<<<<<<<<<<<<,$.",
".X$$$$$$$$$$$$%$XX=>>>>>>>>>>>>>>>>>>>>>>>>>>=XX$$$$$$$$$$$$$$X.",
".XXXXXXXXXXX.XXXX$&==>>>>>>>>>>>>>>>>>>>>>>==&$XXXXXXXXXXXXXXXX.",
".X&========&XX&==&$$=>>>>>>>>>>>>>>>>>>>>>>=$$&==&XX&========&X.",
".X=>>>>>>>>=XX=>>=$$&==>>>>>>>>>>>>>>>>>>==&$$=>>=XX=>==>>>>>=X.",
".X=>>>>>>>>=XX=>>>=&$$=>>>>>>>>>>>>>>>>>>=$$&==>>=XX==$$=>>>>=X.",
".X=>===>>>>=XX=>>>>=$$&==>>>>>>>>>>>>>>==&$$=>>>>=XX==XX=>>>>=X.",
".$==$$=>>>>=XX=>>>>==&$$=>>>>>>>>>>>>>>=$$&==>>>>=XX==XX=>>>>=X.",
".X==XX=>>>>=X$=>>>>>>=$$&==>>>>>>>>>>==&$$=>>>>>>=XX==XX=>==>=X.",
".X==XX=>>>>=XX=>>>>>>==&$$=>>>>>>>>>>=$$&==>>>>>>=XX==XX==$$==X.",
".X==XX=>>=>=XX=>>>>>>>>=$$&==>>>>>>==&$$=>>>>>>>>=XX==$$==XX==$.",
".X==XX=>>=>=XX=>>>>>>>>==&$$=>>>>>>=$$&==>>>>>>>>=$X=>==>=XX==X.",
".X==$X=>==>=XX=>>>>>>>>>>=$$&==>>>=&$$=>>>>>>>>>>=XX=>>>>=X$==X.",
".X==$X==$$==XX=>>>>>>>>>>>=&$$=>>=$$&==>>>>>>>>>>=XX=>>>>=XX==X.",
".X==XX==$$==XX=>>>>>>>>>>>>=$$&==&$$=>>>>>>>>>>>>=XX=>>>>=XX==X.",
".X==XX==X$==XX=>>>>>>>>>>>>==&$XX$&==>>>>>>>>>>>>=XX=>>>>=XX==$.",
".X==$$==XX==XX=>>>>>>>>>>>>>>=X..X=>>>>>>>>>>>>>>=XX=>==>=XX==X.",
".X=>==>=XX==$$=>>>>>>>>>>>>>>=X..X=>>>>>>>>>>>>>>=$X==$$==XX==X.",
".X=>>>>=XX==$$=>>>>>>>>>>>>==&$XX$&==>>>>>>>>>>>>=$$==XX==XX==$.",
".$=>>>>=XX==XX=>>>>>>>>>>>>=$$&==&$$=>>>>>>>>>>>>=XX==XX==XX==X.",
".$=>==>=XX==XX=>>>>>>>>>>==&$$=>>=$$&==>>>>>>>>>>=XX==XX==$$==X.",
".X==$$==XX==XX=>>>>>>>>>>=$$&==>>>=&$$=>>>>>>>>>>=XX==XX=>==>=X.",
".X==XX==$$==XX=>>>>>>>>==&$$=>>>>>>=$$&==>>>>>>>>=XX==XX=>>>>=X.",
".X==XX=>==>=X$=>>>>>>>>=$$&==>>>>>>==&$$=>>>>>>>>=$$==XX=>>>>=X.",
".X==XX=>>>>=X$=>>>>>>==&$$=>>>>>>>>>>=$$&==>>>>>>=$X==$$=>>>>=X.",
".X==XX=>>>>=XX=>>>>>>=$$&==>>>>>>>>>>==&$$=>>>>>>=$$=>===>>>>=X.",
".X==$$=>>>>=XX=>>>>==&$$=>>>>>>>>>>>>>>=$$&==>>>>=$$=>>=>>>>>=X.",
".X=>==>>>>>=XX=>>>>=$$&==>>>>>>>>>>>>>>==&$$=>>>>=XX=>>=>>>>>=X.",
".X=>>>>>>>>=XX=>>>=&$$=>>>>>>>>>>>>>>>>>>=$$&==>>=XX=>==>>>>>=X.",
".X=>>>>>=>>=XX=>>=$$&==>>>>>>>>>>>>>>>>>>>=&$$=>>=XX=>>>>>>>>=X.",
".X&=====&==&XX&==&$$=>>>>>>>>>>>>>>>>>>>>>>=$$&==&XX&========&X.",
"XXXXXXXXXXXXXXXXX$&==>>>>>>>>>>>>>>>>>>>>>>==&$XXXXXXXXXXXXXXXX.",
"XX$$$$$$$$$$%%%$XX=>>>>>>>>>>>>>>>>>>>>>>>>>>=XX$$$$$$$$$$$$$$X.",
".$,<<<<<<<<<<<<,$X=>>>>>>>>>>>>>>>>>>>>>>>>>>=X$,<<<<<<<<<<<<,$.",
".$<4<<<<<<44444<$X&==========================&X$<4<<<<<<44444<$.",
".$<<%$$$$%<4444<$.XXXXXXXX$$XXXXXXXXXXXXXXXX$X.$<<%$$$$%<4444<$.",
".$<<%$$$$%<4444<$.XXXXXXXX$$XXXXXXXXXXXXXXXXXX.$<<%$$$$%<4444<$.",
".$<4<<<<<<44444<$X&==========================&X$<4<<<<<<44444<$.",
".$<44444<<<<<<4<$X=>==========>>>>======>>>>>=X$<44444<<<<<<4<$.",
".$<4444<%$$$$%<<$X==$X$$XXXXX$=>>=$XXX$$=>>>>=X$<4444<%$$$$%<<$.",
".$<4444<%$$$$%<<$X==$X$$XXXXX$=>>=$XX$X$=>>>>=X$<4444<%$$$$%<<$.",
".$<44444<<<<<<4<$X=>==========>>>>======>>>>>=X$<44444<<<<<<4<$.",
".$<4<<<<<<44444<$X=>>>>>>>============>>>>>>>=X$<4<<<<<<44444<$.",
".$<<%$$$$%<4444<$X=>>>>>>=$XXXXXXXXXX$=>>>>>>=X$<<%$$$$%<4444<$.",
".$<<%$$$$%<4444<$X=>>>>>>=$XXXXXXXXXX$=>>>>>>=X$<<%$$$$%<4444<$.",
".$<4<<<<<<44444<$X=>>>>>>>============>>>>>>>=X$<4<<<<<<44444<$.",
".$,<<<<<<<<<<<<,$X&==========================&X$,<<<<<<<<<<<<,$.",
".X$$$$$$$$$$$$$$XXX$XXXXXXXX$$XXX$$$XXXXXXXXXXXX$$$$$$$$$$$$$$X.",
"................................XXXX............................"
};
